<?xml version="1.0" encoding="UTF-8"?>
<svg id="Layer_1" xmlns="http://www.w3.org/2000/svg" version="1.1" viewBox="0 0 1353.28 841.89">
  <!-- Generator: Adobe Illustrator 30.3.0, SVG Export Plug-In . SVG Version: 2.1.3 Build 182)  -->
  <defs>
    <style>
      .st0 {
        fill: #fff;
      }

      .st1 {
        fill: #e41e2d;
      }
    </style>
  </defs>
  <g>
    <path class="st1" d="M241.42,311.88c-17.82-4.32-36.91,2.89-40.39,24.9.68-.32,1.45-.44,1.83-.89,9.63-11.32,21.96-13.39,35.59-10.01,8.27,2.05,16.4,4.75,24.52,7.36,9.95,3.19,19.99,5.7,30.92,5.59-11.25-6.57-21.5-12.95-32.13-18.6-6.45-3.43-13.28-6.64-20.33-8.35h-.01Z"/>
    <path class="st1" d="M429.06,297.33c-.01-3.02-1.7-5.77-4.38-7.16-94.04-47.72-193.42-47.54-287.29.52-2.68,1.39-4.36,4.15-4.36,7.17h0l.25,137.21c0,.58.06,1.16.19,1.73,17.07,75.65,72.14,137.04,145.5,162.2,1.71.54,3.54.53,5.24,0,73.26-25.43,128.11-87.02,144.91-162.73.13-.57.19-1.15.19-1.73l-.25-137.21h0ZM373.6,395.57c-1.68,3.15-3.4,6.38-5.65,9.11-9.86,11.92-12.06,25.99-12.27,40.82-.24,16.97-2.64,33.64-7.77,49.89-4.01,12.69-10.47,23.99-18.85,34.21-3.21,3.92-7.17,7-14.72,6.41-1.08-4.22-2.73-8.41-3.16-12.73-1.26-12.55-1.84-25.16-3.05-37.72-.98-10.23-2.76-20.39-8.02-29.42-2.1-3.61-4.89-7.25-8.24-9.64-9.4-6.67-20.25-4.25-27.53,5.61-6.31,8.55-8.18,18.75-9.46,28.86-1.6,12.75-2.07,25.64-3.2,38.45-.52,5.84-.46,12-5.64,16.45-5.63.37-9.53-2.64-12.89-6.48-13.41-15.36-20.89-33.47-23.52-53.47-1.67-12.73-2.38-25.61-3.11-38.45-.63-11.01-3.91-20.89-10.22-29.97-8.36-12.02-15.39-24.83-17.74-39.48-3.17-19.76-.84-38.65,12.1-54.84,11.87-14.86,28-19.89,46.43-18.15,12.11,1.14,22.99,5.96,33.12,12.53,12.04,7.81,24.57,14.51,38.69,17.85,16,3.79,31.56,2.74,46.74-3.61.57-.24,1.02-.74,1.59-1.86-22.86.85-44.96-1.6-65.41-12.7,15.2-11.4,41.26-16.52,59.99-9.08,18.74,7.45,27.78,22.34,31.85,40.98,4.39,20.12-.61,38.71-10.06,56.42h0Z"/>
  </g>
  <g>
    <g>
      <g>
        <path class="st0" d="M546.89,310.03v19.33h-23.3v68.03h-24.29v-68.03h-23.05v-19.33h70.64Z"/>
        <path class="st0" d="M600.17,397.39l-17.35-32.22h-2.6v32.22h-24.29v-87.36h38.29c7.02,0,12.97,1.22,17.84,3.66,4.87,2.44,8.55,5.78,11.03,10.04,2.48,4.26,3.72,9.03,3.72,14.31,0,5.95-1.63,11.17-4.89,15.67s-8.04,7.7-14.31,9.6l19.7,34.08h-27.14ZM580.22,348.57h12.02c3.3,0,5.78-.78,7.43-2.35,1.65-1.57,2.48-3.84,2.48-6.82,0-2.81-.85-5.02-2.54-6.63-1.69-1.61-4.15-2.42-7.37-2.42h-12.02v18.21h0Z"/>
        <path class="st0" d="M661.63,310.03v50.68c0,4.71,1.09,8.34,3.28,10.9s5.51,3.84,9.98,3.84,7.83-1.3,10.1-3.9c2.27-2.6,3.41-6.21,3.41-10.84v-50.68h24.29v50.68c0,8.01-1.69,14.85-5.08,20.51s-7.99,9.91-13.82,12.76-12.29,4.27-19.39,4.27-13.44-1.42-19.02-4.27-9.96-7.08-13.13-12.7c-3.18-5.62-4.77-12.47-4.77-20.57v-50.68h24.16,0Z"/>
        <path class="st0" d="M734,391.01c-6.53-4.83-10.04-11.75-10.53-20.76h25.9c.25,3.06,1.16,5.29,2.73,6.69,1.57,1.41,3.59,2.11,6.07,2.11,2.23,0,4.07-.56,5.51-1.67,1.44-1.12,2.17-2.66,2.17-4.65,0-2.56-1.2-4.54-3.59-5.95-2.4-1.4-6.28-2.97-11.65-4.71-5.7-1.9-10.31-3.74-13.82-5.51-3.51-1.78-6.57-4.38-9.17-7.81s-3.9-7.91-3.9-13.44,1.4-10.43,4.21-14.44,6.69-7.04,11.65-9.11c4.96-2.06,10.57-3.1,16.85-3.1,10.16,0,18.28,2.38,24.35,7.12,6.07,4.75,9.31,11.42,9.73,20.01h-26.39c-.08-2.64-.89-4.63-2.42-5.95-1.53-1.32-3.49-1.98-5.89-1.98-1.82,0-3.31.54-4.46,1.61-1.16,1.07-1.73,2.6-1.73,4.58,0,1.65.64,3.08,1.92,4.27,1.28,1.2,2.87,2.23,4.77,3.1s4.71,1.96,8.43,3.28c5.53,1.9,10.1,3.78,13.69,5.64,3.59,1.86,6.69,4.46,9.29,7.81s3.9,7.58,3.9,12.7-1.3,9.87-3.9,14c-2.6,4.13-6.36,7.39-11.28,9.79-4.92,2.4-10.72,3.59-17.41,3.59-10.16,0-18.51-2.42-25.03-7.25v.03Z"/>
        <path class="st0" d="M868.69,310.03v19.33h-23.3v68.03h-24.29v-68.03h-23.05v-19.33h70.64Z"/>
      </g>
      <g>
        <path class="st0" d="M960.07,315.54c6.9,3.68,12.21,8.82,15.92,15.43,3.72,6.61,5.58,14.17,5.58,22.68s-1.88,15.94-5.64,22.55-9.09,11.79-15.98,15.55c-6.9,3.76-14.89,5.64-23.98,5.64h-34.57v-87.36h34.57c9.17,0,17.2,1.84,24.1,5.51h0ZM950.84,370.13c4.05-3.88,6.07-9.38,6.07-16.48s-2.03-12.74-6.07-16.67c-4.05-3.92-9.62-5.89-16.73-5.89h-8.43v44.86h8.43c7.1,0,12.68-1.94,16.73-5.82h0Z"/>
        <path class="st0" d="M1016.76,329.48v14.25h27.88v18.46h-27.88v15.74h31.6v19.45h-55.88v-87.36h55.88v19.45h-31.6Z"/>
        <path class="st0" d="M1141.29,397.39h-24.29l-32.34-48.82v48.82h-24.29v-87.36h24.29l32.34,49.44v-49.44h24.29v87.36Z"/>
        <path class="st0" d="M1220.97,310.03v19.33h-23.3v68.03h-24.29v-68.03h-23.05v-19.33h70.64Z"/>
      </g>
    </g>
    <g>
      <path class="st0" d="M546.89,457.04v19.33h-23.3v68.03h-24.29v-68.03h-23.05v-19.33h70.64Z"/>
      <path class="st0" d="M579.73,457.04v50.68c0,4.71,1.09,8.34,3.28,10.9s5.51,3.84,9.98,3.84,7.83-1.3,10.1-3.9c2.27-2.6,3.41-6.21,3.41-10.84v-50.68h24.29v50.68c0,8.01-1.69,14.85-5.08,20.51s-7.99,9.91-13.82,12.76-12.29,4.27-19.39,4.27-13.44-1.42-19.02-4.27-9.96-7.08-13.13-12.7c-3.18-5.62-4.77-12.47-4.77-20.57v-50.68h24.16,0ZM572.85,446.56c-1.86-1.86-2.79-4.19-2.79-7s.93-5.29,2.79-7.19,4.19-2.85,7-2.85,5.29.95,7.19,2.85,2.85,4.3,2.85,7.19-.95,5.14-2.85,7c-1.9,1.86-4.3,2.79-7.19,2.79s-5.14-.93-7-2.79ZM599.25,446.56c-1.86-1.86-2.79-4.19-2.79-7s.93-5.29,2.79-7.19,4.19-2.85,7-2.85,5.16.95,7.06,2.85,2.85,4.3,2.85,7.19-.95,5.14-2.85,7c-1.9,1.86-4.26,2.79-7.06,2.79s-5.14-.93-7-2.79Z"/>
      <path class="st0" d="M688.4,544.39l-17.35-32.22h-2.6v32.22h-24.29v-87.36h38.29c7.02,0,12.97,1.22,17.84,3.66,4.87,2.44,8.55,5.78,11.03,10.04,2.48,4.26,3.72,9.03,3.72,14.31,0,5.95-1.63,11.17-4.89,15.67s-8.04,7.7-14.31,9.6l19.7,34.08h-27.14ZM668.45,495.57h12.02c3.3,0,5.78-.78,7.43-2.35,1.65-1.57,2.48-3.84,2.48-6.82,0-2.81-.85-5.02-2.54-6.63-1.69-1.61-4.15-2.42-7.37-2.42h-12.02v18.21h0Z"/>
      <path class="st0" d="M777.74,544.39l-27.38-38.29v38.29h-24.29v-87.36h24.29v37.67l27.14-37.67h28l-32.09,42.38,33.7,44.98h-29.37Z"/>
      <path class="st0" d="M840.32,457.04v87.36h-24.29v-87.36h24.29ZM821.05,446.56c-1.86-1.86-2.79-4.19-2.79-7s.93-5.29,2.79-7.19,4.19-2.85,7-2.85,5.29.95,7.19,2.85,2.85,4.3,2.85,7.19-.95,5.14-2.85,7c-1.9,1.86-4.3,2.79-7.19,2.79s-5.14-.93-7-2.79Z"/>
      <path class="st0" d="M933.62,457.04l-30.73,59.6v27.76h-24.41v-27.76l-30.73-59.6h27.76l15.37,33.7,15.37-33.7h27.38-.01Z"/>
      <path class="st0" d="M965.34,476.49v14.25h27.88v18.46h-27.88v15.74h31.6v19.45h-55.88v-87.36h55.88v19.45h-31.6Z"/>
    </g>
  </g>
</svg>