<?xml version="1.0" encoding="UTF-8"?>
<svg id="Layer_1" xmlns="http://www.w3.org/2000/svg" version="1.1" viewBox="0 0 1417.32 1417.32">
  <!-- Generator: Adobe Illustrator 30.3.0, SVG Export Plug-In . SVG Version: 2.1.3 Build 182)  -->
  <defs>
    <style>
      .st0 {
        fill: #e41e2d;
      }
    </style>
  </defs>
  <path class="st0" d="M558.46,273.77c-67.34-16.33-139.48,10.91-152.62,94.11,2.58-1.21,5.46-1.67,6.9-3.36,36.38-42.77,82.98-50.61,134.48-37.83,31.27,7.76,61.96,17.95,92.67,27.8,37.61,12.05,75.52,21.52,116.83,21.13-42.53-24.82-81.24-48.95-121.42-70.3-24.38-12.96-50.2-25.08-76.84-31.54Z"/>
  <path class="st0" d="M1267.53,218.78c-.04-11.4-6.42-21.82-16.55-27.04C895.62,11.38,520.04,12.07,165.33,193.71c-10.12,5.25-16.48,15.7-16.48,27.1h0l.95,518.53c0,2.2.24,4.4.73,6.55,64.51,285.88,272.61,517.87,549.83,612.94,6.45,2.03,13.36,2.01,19.8-.04,276.86-96.09,484.12-328.84,547.61-614.94.47-2.15.71-4.35.71-6.55l-.95-518.53ZM1057.97,590.03c-6.35,11.91-12.83,24.11-21.37,34.43-37.28,45.06-45.57,98.2-46.36,154.27-.9,64.12-9.97,127.12-29.37,188.55-15.14,47.96-39.55,90.67-71.22,129.27-12.14,14.8-27.09,26.45-55.64,24.24-4.1-15.96-10.32-31.8-11.95-48.09-4.75-47.42-6.97-95.09-11.53-142.54-3.71-38.65-10.44-77.07-30.29-111.16-7.95-13.65-18.46-27.41-31.15-36.41-35.53-25.22-76.53-16.07-104.04,21.21-23.84,32.32-30.93,70.85-35.73,109.04-6.06,48.17-7.83,96.88-12.1,145.29-1.95,22.09-1.75,45.34-21.31,62.15-21.26,1.38-36.02-9.98-48.7-24.5-50.69-58.03-78.96-126.49-88.89-202.07-6.32-48.12-8.99-96.79-11.77-145.3-2.38-41.62-14.78-78.95-38.62-113.25-31.58-45.44-58.17-93.84-67.06-149.21-11.99-74.68-3.16-146.07,45.72-207.24,44.86-56.15,105.81-75.16,175.47-68.59,45.77,4.32,86.86,22.51,125.17,47.35,45.5,29.5,92.83,54.82,146.21,67.47,60.47,14.34,119.27,10.36,176.63-13.66,2.15-.9,3.87-2.81,6.02-7.01-86.37,3.23-169.92-6.04-247.18-48.01,57.42-43.07,155.92-62.41,226.69-34.3,70.82,28.14,104.98,84.42,120.36,154.85,16.6,76.02-2.31,146.28-38.01,213.2Z"/>
</svg>